<?xml version="1.0" encoding="utf-8"?>
<!-- Generator: Adobe Illustrator 21.0.0, SVG Export Plug-In . SVG Version: 6.00 Build 0)  -->
<svg version="1.1" xmlns="http://www.w3.org/2000/svg" xmlns:xlink="http://www.w3.org/1999/xlink" x="0px" y="0px"
	 viewBox="0 0 100 55.2" style="enable-background:new 0 0 100 55.2;" xml:space="preserve">
<style type="text/css">
	.st0{display:none;}
	.st1{display:inline;fill:url(#SVGID_1_);}
	.st2{fill:url(#SVGID_2_);}
</style>
<g id="Calque_1" class="st0">
	
		<image style="display:inline;overflow:visible;" width="2880" height="1800" xlink:href="../../../Capture d’écran 2019-04-02 à 11.47.15.png"  transform="matrix(3.472222e-02 0 0 3.472222e-02 0 -7.25)">
	</image>
</g>
<g id="Calque_2" class="st0">
	<linearGradient id="SVGID_1_" gradientUnits="userSpaceOnUse" x1="34.4816" y1="19.3438" x2="34.4816" y2="9.4952">
		<stop  offset="0" style="stop-color:#BFBFBF"/>
		<stop  offset="1" style="stop-color:#FFFFFF"/>
	</linearGradient>
	<path class="st1" d="M38.1,12.3C38,12.3,38,12.3,38.1,12.3c-0.2-0.9-0.9-1.7-1.9-1.9c-0.4-0.1-0.9,0-1.2,0.2
		c-0.5-0.9-1.6-1.3-2.7-1c-1.3,0.3-2.1,1.6-1.8,2.8c0,0,0,0,0,0c-1.5,0.4-2.6,1.8-2.5,3.4c0.1,1.8,1.7,3.2,3.5,3.1
		c0.5,0,1-0.2,1.4-0.4c0.5,0.5,1.2,0.9,1.9,0.8c1.1-0.1,1.9-0.8,2.2-1.8c0.4,0.2,0.9,0.3,1.4,0.3c1.5-0.1,2.7-1.4,2.6-2.9
		C40.9,13.4,39.6,12.2,38.1,12.3z"/>
</g>
<g id="Calque_3">
	<linearGradient id="SVGID_2_" gradientUnits="userSpaceOnUse" x1="73.7077" y1="12.8585" x2="73.7077" y2="1.5262">
		<stop  offset="0" style="stop-color:#BFBFBF"/>
		<stop  offset="1" style="stop-color:#FFFFFF"/>
	</linearGradient>
	<path class="st2" d="M79.7,6.4c-0.1,0-0.3,0-0.4,0c0-1.7-1.2-3.1-2.9-3.1c-0.1,0-0.2,0-0.4,0c-0.3-0.9-1.4-1.7-2.7-1.7
		c-1.4-0.1-2.7,0.6-3,1.7c-0.1,0-0.2,0-0.3,0c-1.2-0.1-2.2,0.9-2.2,2c0,0.2,0,0.5,0.1,0.7c0,0,0,0,0,0c-1.4-0.1-2.6,1-2.7,2.5
		c-0.1,1.4,1,2.6,2.5,2.7c0.3,0,0.6,0,0.8-0.1c0.4,1.1,1.3,1.9,2.5,1.9c1,0,1.9-0.4,2.4-1.1c0.5,0.4,1.1,0.7,1.8,0.7
		c1,0.1,2-0.4,2.6-1.2c0.5,0.4,1.1,0.7,1.7,0.7c1.6,0.1,2.9-1.1,2.9-2.7C82.4,7.8,81.2,6.4,79.7,6.4z"/>
</g>
</svg>
