<?xml version="1.0" encoding="utf-8"?>
<!-- Generator: Adobe Illustrator 21.0.0, SVG Export Plug-In . SVG Version: 6.00 Build 0)  -->
<svg version="1.1" id="Calque_1" xmlns="http://www.w3.org/2000/svg" xmlns:xlink="http://www.w3.org/1999/xlink" x="0px" y="0px"
	 viewBox="0 0 17.2 11.4" style="enable-background:new 0 0 17.2 11.4;" xml:space="preserve">
<style type="text/css">
	.st0{display:none;}
	.st1{display:inline;fill:url(#SVGID_1_);}
	.st2{fill:url(#SVGID_2_);}
</style>
<g id="Calque_1_1_" class="st0">
	
		<image style="display:inline;overflow:visible;enable-background:new    ;" width="2880" height="1800" xlink:href="../../../Capture d’écran 2019-04-02 à 11.47.15.png"  transform="matrix(3.472222e-02 0 0 3.472222e-02 -65.1937 -8.8405)">
	</image>
</g>
<g id="Calque_2" class="st0">
	
		<linearGradient id="SVGID_1_" gradientUnits="userSpaceOnUse" x1="-30.6939" y1="37.0657" x2="-30.6939" y2="46.9143" gradientTransform="matrix(1 0 0 -1 0 54.819)">
		<stop  offset="0" style="stop-color:#BFBFBF"/>
		<stop  offset="1" style="stop-color:#FFFFFF"/>
	</linearGradient>
	<path class="st1" d="M-27.1,10.7C-27.2,10.7-27.2,10.7-27.1,10.7C-27.3,9.8-28,9-29,8.8c-0.4-0.1-0.9,0-1.2,0.2
		c-0.5-0.9-1.6-1.3-2.7-1c-1.3,0.3-2.1,1.6-1.8,2.8l0,0c-1.5,0.4-2.6,1.8-2.5,3.4c0.1,1.8,1.7,3.2,3.5,3.1c0.5,0,1-0.2,1.4-0.4
		c0.5,0.5,1.2,0.9,1.9,0.8c1.1-0.1,1.9-0.8,2.2-1.8c0.4,0.2,0.9,0.3,1.4,0.3c1.5-0.1,2.7-1.4,2.6-2.9
		C-24.3,11.8-25.6,10.6-27.1,10.7z"/>
</g>
<g id="Calque_3">
	
		<linearGradient id="SVGID_2_" gradientUnits="userSpaceOnUse" x1="8.6032" y1="43.551" x2="8.6032" y2="54.8833" gradientTransform="matrix(1 0 0 -1 0 54.819)">
		<stop  offset="0" style="stop-color:#BFBFBF"/>
		<stop  offset="1" style="stop-color:#FFFFFF"/>
	</linearGradient>
	<path class="st2" d="M14.5,4.8c-0.1,0-0.3,0-0.4,0c0-1.7-1.2-3.1-2.9-3.1c-0.1,0-0.2,0-0.4,0C10.5,0.8,9.4,0,8.1,0
		c-1.4-0.1-2.7,0.6-3,1.7c-0.1,0-0.2,0-0.3,0c-1.2-0.1-2.2,0.9-2.2,2c0,0.2,0,0.5,0.1,0.7l0,0C1.3,4.3,0.1,5.4,0,6.9
		c-0.1,1.4,1,2.6,2.5,2.7c0.3,0,0.6,0,0.8-0.1c0.4,1.1,1.3,1.9,2.5,1.9c1,0,1.9-0.4,2.4-1.1C8.7,10.7,9.3,11,10,11
		c1,0.1,2-0.4,2.6-1.2c0.5,0.4,1.1,0.7,1.7,0.7c1.6,0.1,2.9-1.1,2.9-2.7S16,4.8,14.5,4.8z"/>
</g>
</svg>
