<?xml version="1.0" encoding="utf-8"?>
<!-- Generator: Adobe Illustrator 21.0.0, SVG Export Plug-In . SVG Version: 6.00 Build 0)  -->
<svg version="1.1" id="Calque_1" xmlns="http://www.w3.org/2000/svg" xmlns:xlink="http://www.w3.org/1999/xlink" x="0px" y="0px"
	 viewBox="0 0 13 9.8" style="enable-background:new 0 0 13 9.8;" xml:space="preserve">
<style type="text/css">
	.st0{display:none;}
	.st1{fill:url(#SVGID_1_);}
	.st2{display:inline;fill:url(#SVGID_2_);}
</style>
<g id="Calque_1_1_" class="st0">
	
		<image style="display:inline;overflow:visible;enable-background:new    ;" width="2880" height="1800" xlink:href="../../../Capture d’écran 2019-04-02 à 11.47.15.png"  transform="matrix(3.472222e-02 0 0 3.472222e-02 -27.9937 -16.7515)">
	</image>
</g>
<g id="Calque_2">
	
		<linearGradient id="SVGID_1_" gradientUnits="userSpaceOnUse" x1="6.5061" y1="29.1547" x2="6.5061" y2="39.0033" gradientTransform="matrix(1 0 0 -1 0 38.997)">
		<stop  offset="0" style="stop-color:#BFBFBF"/>
		<stop  offset="1" style="stop-color:#FFFFFF"/>
	</linearGradient>
	<path class="st1" d="M10.1,2.8C10,2.8,10,2.8,10.1,2.8C9.9,1.9,9.2,1.1,8.2,0.9C7.8,0.8,7.3,0.9,7,1.1c-0.5-0.9-1.6-1.3-2.7-1
		C3,0.4,2.2,1.7,2.5,2.9l0,0C1,3.3-0.1,4.7,0,6.3c0.1,1.8,1.7,3.2,3.5,3.1c0.5,0,1-0.2,1.4-0.4c0.5,0.5,1.2,0.9,1.9,0.8
		C7.9,9.7,8.7,9,9,8c0.4,0.2,0.9,0.3,1.4,0.3c1.5-0.1,2.7-1.4,2.6-2.9C12.9,3.9,11.6,2.7,10.1,2.8z"/>
</g>
<g id="Calque_3" class="st0">
	
		<linearGradient id="SVGID_2_" gradientUnits="userSpaceOnUse" x1="45.8032" y1="35.64" x2="45.8032" y2="46.9723" gradientTransform="matrix(1 0 0 -1 0 38.997)">
		<stop  offset="0" style="stop-color:#BFBFBF"/>
		<stop  offset="1" style="stop-color:#FFFFFF"/>
	</linearGradient>
	<path class="st2" d="M51.7-3.1c-0.1,0-0.3,0-0.4,0c0-1.7-1.2-3.1-2.9-3.1c-0.1,0-0.2,0-0.4,0c-0.3-0.9-1.4-1.7-2.7-1.7
		c-1.4-0.1-2.7,0.6-3,1.7c-0.1,0-0.2,0-0.3,0c-1.2-0.1-2.2,0.9-2.2,2c0,0.2,0,0.5,0.1,0.7l0,0c-1.4-0.1-2.6,1-2.7,2.5
		c-0.1,1.4,1,2.6,2.5,2.7c0.3,0,0.6,0,0.8-0.1c0.4,1.1,1.3,1.9,2.5,1.9c1,0,1.9-0.4,2.4-1.1c0.5,0.4,1.1,0.7,1.8,0.7
		c1,0.1,2-0.4,2.6-1.2c0.5,0.4,1.1,0.7,1.7,0.7c1.6,0.1,2.9-1.1,2.9-2.7S53.2-3.1,51.7-3.1z"/>
</g>
</svg>
