<?xml version="1.0" encoding="utf-8"?>
<!-- Generator: Adobe Illustrator 21.0.0, SVG Export Plug-In . SVG Version: 6.00 Build 0)  -->
<svg version="1.1" id="Calque_2" xmlns="http://www.w3.org/2000/svg" xmlns:xlink="http://www.w3.org/1999/xlink" x="0px" y="0px"
	 viewBox="0 0 94.7 64.1" style="enable-background:new 0 0 94.7 64.1;" xml:space="preserve">
<style type="text/css">
	.st0{fill:url(#SVGID_1_);}
</style>
<linearGradient id="SVGID_1_" gradientUnits="userSpaceOnUse" x1="47.3208" y1="98.1369" x2="47.3208" y2="34" gradientTransform="matrix(1 0 0 1 0 -34)">
	<stop  offset="0" style="stop-color:#BFBFBF"/>
	<stop  offset="1" style="stop-color:#FFFFFF"/>
</linearGradient>
<path class="st0" d="M80.8,22c0-0.6,0-1.2,0-1.8c-0.6-9.9-9-17.5-18.9-16.9c-3.6,0.2-6.9,1.5-9.7,3.5C48.6,2.4,42.9-0.3,36.6,0
	c-6.7,0.4-12.4,4.2-15.3,9.6c-2.4,0.2-4.8,1.1-7,2.6c-4.1,2.9-6.1,7.5-6,12.3c-2.6,1.8-4.7,4.2-6.2,7.2C-2.6,41,0.9,52.2,9.8,56.6
	c3.3,1.7,6.9,2.2,10.4,1.6c1.4,1.6,3.2,3,5.2,4c7.9,3.9,17.4,1.3,22-5.8c3.2,3,7.7,4.7,12.6,4.4c4.2-0.2,8-1.9,10.7-4.5
	c2.2,0.8,4.6,1.1,7,1c9.9-0.6,17.5-9,16.9-18.9C94.3,30.3,88.4,23.7,80.8,22z"/>
</svg>
