<?xml version="1.0" encoding="utf-8"?>
<!-- Generator: Adobe Illustrator 21.0.0, SVG Export Plug-In . SVG Version: 6.00 Build 0)  -->
<svg version="1.1" id="Calque_2" xmlns="http://www.w3.org/2000/svg" xmlns:xlink="http://www.w3.org/1999/xlink" x="0px" y="0px"
	 viewBox="0 0 79.8 62.3" style="enable-background:new 0 0 79.8 62.3;" xml:space="preserve">
<style type="text/css">
	.st0{fill:url(#SVGID_1_);}
</style>
<linearGradient id="SVGID_1_" gradientUnits="userSpaceOnUse" x1="44.3948" y1="4.0599" x2="44.3948" y2="66.7564" gradientTransform="matrix(0.9978 -6.587079e-02 -6.587079e-02 -0.9978 -2.6573 69.0263)">
	<stop  offset="0" style="stop-color:#CCCCCC"/>
	<stop  offset="1" style="stop-color:#FFFFFF"/>
</linearGradient>
<path class="st0" d="M77.3,32.3c-2.7-4-7.1-6.3-11.7-6.6c0.7-2,1.1-4.1,0.9-6.4C65.9,10.6,58.4,4,49.7,4.5c-2.3,0.2-4.5,0.8-6.4,1.9
	c-5.4-7-15.9-8.5-23.9-3.2c-6.9,4.6-9.8,12.8-7.7,20C4.5,25.1-0.5,31.8,0,39.5c0.6,8.7,8.1,15.3,16.8,14.7c1.9-0.1,3.7-0.6,5.3-1.3
	c2.6,5.9,8.7,9.8,15.5,9.4c6.2-0.4,11.2-4.3,13.5-9.6c5.2,5.5,14.1,6.5,21,1.8C79.8,49.4,82.1,39.4,77.3,32.3z"/>
</svg>
